<svg xmlns="http://www.w3.org/2000/svg" xmlns:xlink="http://www.w3.org/1999/xlink" width="120" height="120" viewBox="0 0 120 120"><defs><filter id="a" x="0" y="0" width="120" height="120" filterUnits="userSpaceOnUse"><feOffset dy="3" input="SourceAlpha"/><feGaussianBlur stdDeviation="3" result="b"/><feFlood flood-opacity="0.161"/><feComposite operator="in" in2="b"/><feComposite in="SourceGraphic"/></filter><filter id="c" x="5.719" y="5.719" width="108.563" height="108.563" filterUnits="userSpaceOnUse"><feOffset dy="3" input="SourceAlpha"/><feGaussianBlur stdDeviation="3" result="d"/><feFlood flood-opacity="0.161"/><feComposite operator="in" in2="d"/><feComposite in="SourceGraphic"/></filter></defs><g transform="translate(-11720.281 8840.757)"><g transform="translate(11345.281 -9604.757)"><g transform="matrix(1, 0, 0, 1, 375, 764)" filter="url(#a)"><circle cx="51" cy="51" r="51" transform="translate(9 6)" fill="#e6f1e8"/></g><g transform="matrix(1, 0, 0, 1, 375, 764)" filter="url(#c)"><circle cx="45.281" cy="45.281" r="45.281" transform="translate(14.72 11.72)" fill="#f9f9f9"/></g></g><path d="M-1.5-9.406q0,4.719-1.953,7.219A6.817,6.817,0,0,1-9.172.313a6.865,6.865,0,0,1-5.687-2.453q-1.969-2.453-2.016-7.031v-4.187q0-4.766,1.977-7.234a6.868,6.868,0,0,1,5.7-2.469,6.875,6.875,0,0,1,5.688,2.445q1.969,2.445,2.016,7.023ZM-6.016-14a8.316,8.316,0,0,0-.773-4.117A2.614,2.614,0,0,0-9.2-19.406a2.568,2.568,0,0,0-2.352,1.227,7.782,7.782,0,0,0-.8,3.836v5.531A8.729,8.729,0,0,0-11.6-4.68a2.58,2.58,0,0,0,2.43,1.352,2.536,2.536,0,0,0,2.391-1.3,8.52,8.52,0,0,0,.766-3.969Zm8.234,2.813L3.531-22.75h12.75v3.766H7.234l-.562,4.891a7.159,7.159,0,0,1,3.422-.859,6.557,6.557,0,0,1,5.094,2.016A8.051,8.051,0,0,1,17.031-7.3a8.248,8.248,0,0,1-.93,3.945,6.562,6.562,0,0,1-2.664,2.7A8.317,8.317,0,0,1,9.344.313,8.831,8.831,0,0,1,5.516-.523,6.79,6.79,0,0,1,2.727-2.875,6.409,6.409,0,0,1,1.641-6.328H6.109A3.338,3.338,0,0,0,7.1-4.117a3.146,3.146,0,0,0,2.227.789,2.776,2.776,0,0,0,2.359-1.1,5.1,5.1,0,0,0,.828-3.117,4.22,4.22,0,0,0-.953-2.969,3.5,3.5,0,0,0-2.7-1.031A3.909,3.909,0,0,0,6.25-10.7l-.437.406Z" transform="translate(11780 -8771)" fill="#12263f"/></g></svg>