<svg xmlns="http://www.w3.org/2000/svg" xmlns:xlink="http://www.w3.org/1999/xlink" width="102" height="102" viewBox="0 0 102 102">
  <defs>
    <radialGradient id="radial-gradient" cx="0.5" cy="0.5" r="0.5" gradientUnits="objectBoundingBox">
      <stop offset="0" stop-color="#f2e9c7"/>
      <stop offset="1" stop-color="#eadba3"/>
    </radialGradient>
    <filter id="Elipse_11494" x="0" y="0" width="102" height="102" filterUnits="userSpaceOnUse">
      <feOffset dy="3" input="SourceAlpha"/>
      <feGaussianBlur stdDeviation="3" result="blur"/>
      <feFlood flood-opacity="0.161"/>
      <feComposite operator="in" in2="blur"/>
      <feComposite in="SourceGraphic"/>
    </filter>
  </defs>
  <g id="Grupo_1099161" data-name="Grupo 1099161" transform="translate(-1114.333 -93)">
    <g transform="matrix(1, 0, 0, 1, 1114.33, 93)" filter="url(#Elipse_11494)">
      <g id="Elipse_11494-2" data-name="Elipse 11494" transform="translate(9 6)" stroke="#fff" stroke-width="4" fill="url(#radial-gradient)">
        <circle cx="42" cy="42" r="42" stroke="none"/>
        <circle cx="42" cy="42" r="40" fill="none"/>
      </g>
    </g>
    <g id="cow_4778614" transform="translate(1140.337 116.123)">
      <g id="Grupo_1099136" data-name="Grupo 1099136" transform="translate(0.691 4.571)">
        <path id="Trazado_873112" data-name="Trazado 873112" d="M41.5,87.98H53.577a4.751,4.751,0,0,1,4.751,4.751v1.861a2.376,2.376,0,0,1-2.376,2.376H39.126a2.376,2.376,0,0,1-2.376-2.376V92.731A4.751,4.751,0,0,1,41.5,87.98Z" transform="translate(-22.892 -55.375)" fill="#feedda"/>
        <path id="Trazado_873113" data-name="Trazado 873113" d="M44.562,110.676H59.954v1.861a2.771,2.771,0,0,1-2.771,2.771H47.333a2.771,2.771,0,0,1-2.772-2.771Z" transform="translate(-27.611 -69.085)" fill="#fcdbb4"/>
        <rect id="Rect치ngulo_401217" data-name="Rect치ngulo 401217" width="3.737" height="2.574" rx="1.287" transform="translate(17.396 36.127)" fill="#515165"/>
        <rect id="Rect치ngulo_401218" data-name="Rect치ngulo 401218" width="3.736" height="2.574" rx="1.287" transform="translate(31.897 38.701) rotate(180)" fill="#515165"/>
        <path id="Trazado_873114" data-name="Trazado 873114" d="M93.8,7.15a9.57,9.57,0,0,1-7.079,3.131H83.749a7.513,7.513,0,0,1,6.3,3.422,5.543,5.543,0,0,0,4.918-5.108l.213-2.966Z" transform="translate(-51.283 -5.629)" fill="#e0e0e0"/>
        <path id="Trazado_873115" data-name="Trazado 873115" d="M16.759,7.151a9.569,9.569,0,0,0,7.079,3.131h2.969a7.512,7.512,0,0,0-6.3,3.422A5.543,5.543,0,0,1,15.588,8.6L15.375,5.63Z" transform="translate(-9.98 -5.63)" fill="#e0e0e0"/>
        <path id="Trazado_873116" data-name="Trazado 873116" d="M53.1,30.165a11.025,11.025,0,0,0-.418-11.942l-.587-.845H47.63l-.587.845a11.025,11.025,0,0,0-.418,11.942,7.452,7.452,0,0,1-2.1,9.9l-3.931,2.776a13.235,13.235,0,0,1,.162,2.041v1.572a4.729,4.729,0,0,1,3.068-1.127H55.9a4.729,4.729,0,0,1,3.068,1.127V44.886a13.282,13.282,0,0,1,.161-2.041L55.2,40.069a7.452,7.452,0,0,1-2.1-9.9Z" transform="translate(-25.213 -12.726)" fill="#f4f4f7"/>
        <path id="Trazado_873117" data-name="Trazado 873117" d="M37.357,30.165a11.025,11.025,0,0,1,.418-11.942l.587-.845h-5.59A7.523,7.523,0,0,0,25.25,24.9v2.906a13.253,13.253,0,0,0,3.118,8.54,13.25,13.25,0,0,1,2.956,6.5l3.931-2.776a7.452,7.452,0,0,0,2.1-9.9Z" transform="translate(-15.946 -12.726)" fill="#515165"/>
        <path id="Trazado_873118" data-name="Trazado 873118" d="M82.672,27.807V24.9a7.523,7.523,0,0,0-7.523-7.523H69.56l.587.845a11.025,11.025,0,0,1,.418,11.942,7.452,7.452,0,0,0,2.1,9.9L76.6,42.845a13.254,13.254,0,0,1,2.957-6.5,13.253,13.253,0,0,0,3.118-8.54Z" transform="translate(-42.683 -12.726)" fill="#515165"/>
        <path id="Trazado_873119" data-name="Trazado 873119" d="M105.288,29.338a8.308,8.308,0,0,0-3.959-.33,7.494,7.494,0,0,1,.565,2.855V34.77a13.235,13.235,0,0,1-.178,2.15,6.927,6.927,0,0,0,.721.31c4.051,1.465,8.761-1.294,8.761-1.294s-1.859-5.133-5.91-6.6Z" transform="translate(-61.903 -19.689)" fill="#363644"/>
        <path id="Trazado_873120" data-name="Trazado 873120" d="M105.069,37.156a4.454,4.454,0,0,0-1.51-.24,6.97,6.97,0,0,0-.81.05V38.04a4.776,4.776,0,0,0,1.621,1.05,4.441,4.441,0,0,0,1.51.24,7.7,7.7,0,0,0,1.647-.193A5.811,5.811,0,0,0,105.069,37.156Z" transform="translate(-62.761 -24.528)" fill="#f4f4f7"/>
        <path id="Trazado_873121" data-name="Trazado 873121" d="M7.657,29.338a8.309,8.309,0,0,1,3.959-.33,7.5,7.5,0,0,0-.564,2.855V34.77a13.235,13.235,0,0,0,.178,2.15,6.925,6.925,0,0,1-.721.31C6.46,38.694,1.75,35.936,1.75,35.936s1.857-5.133,5.907-6.6Z" transform="translate(-1.75 -19.689)" fill="#363644"/>
        <path id="Trazado_873122" data-name="Trazado 873122" d="M15.642,37.156a4.454,4.454,0,0,1,1.51-.24,6.97,6.97,0,0,1,.81.05V38.04a4.776,4.776,0,0,1-1.621,1.05,4.441,4.441,0,0,1-1.51.24,7.7,7.7,0,0,1-1.647-.193,5.811,5.811,0,0,1,2.458-1.981Z" transform="translate(-8.657 -24.528)" fill="#f4f4f7"/>
      </g>
      <g id="Grupo_1099137" data-name="Grupo 1099137" transform="translate(-0.003 3.877)">
        <path id="Trazado_873123" data-name="Trazado 873123" d="M47.08,95.127H45.917a1.98,1.98,0,0,0,0,3.959H47.08a1.98,1.98,0,0,0,0-3.959Zm0,2.574H45.917a.594.594,0,0,1,0-1.188H47.08a.594.594,0,0,1,0,1.188Z" transform="translate(-26.54 -58.998)"/>
        <path id="Trazado_873124" data-name="Trazado 873124" d="M74.267,95.127H73.1a1.98,1.98,0,0,0,0,3.959h1.163a1.98,1.98,0,1,0,0-3.959Zm0,2.574H73.1a.594.594,0,0,1,0-1.188h1.163a.594.594,0,0,1,0,1.188Z" transform="translate(-42.963 -58.998)"/>
        <path id="Trazado_873125" data-name="Trazado 873125" d="M50.865,32.875a.686.686,0,0,0-.713.673,11.729,11.729,0,0,0,.046,1.425.693.693,0,0,0,.689.628.456.456,0,0,0,.065,0,.693.693,0,0,0,.625-.754,10.407,10.407,0,0,1-.04-1.256.693.693,0,0,0-.674-.713Z" transform="translate(-30.292 -21.394)"/>
        <path id="Trazado_873126" data-name="Trazado 873126" d="M37.753,49.879a1.214,1.214,0,0,0-1.613,1.174,1.683,1.683,0,0,0,.332,1,1.584,1.584,0,0,0,1.254.688,1.2,1.2,0,0,0,.713-.229,1.251,1.251,0,0,0,.5-1.009A1.734,1.734,0,0,0,37.753,49.879Z" transform="translate(-21.83 -31.625)"/>
        <path id="Trazado_873127" data-name="Trazado 873127" d="M87.093,50.051a1.252,1.252,0,0,0-1.114-.166,1.733,1.733,0,0,0-1.185,1.627,1.251,1.251,0,0,0,.5,1.009,1.2,1.2,0,0,0,.713.229,1.584,1.584,0,0,0,1.254-.688,1.682,1.682,0,0,0,.332-1A1.248,1.248,0,0,0,87.093,50.051Z" transform="translate(-51.221 -31.631)"/>
        <path id="Trazado_873128" data-name="Trazado 873128" d="M50.638,20.582c-.079-.222-2.017-5.456-6.323-7.013a8.7,8.7,0,0,0-3.781-.422l0-.009A6.228,6.228,0,0,0,45.07,7.584l.213-2.965a.693.693,0,0,0-1.2-.515L42.693,5.626a8.893,8.893,0,0,1-6.566,2.9H14.549A8.893,8.893,0,0,1,7.983,5.625L6.6,4.1a.693.693,0,0,0-1.2.515l.213,2.966a6.228,6.228,0,0,0,4.542,5.554l0,.009a8.706,8.706,0,0,0-3.781.422C2.057,15.126.12,20.36.038,20.582a.693.693,0,0,0,.3.831,14.418,14.418,0,0,0,6.515,1.819,8.312,8.312,0,0,0,2.8-.461,13.962,13.962,0,0,0,2.925,5.866,12.636,12.636,0,0,1,2.955,8.093V38a5.424,5.424,0,0,0-1.683,3.926v1.861a3.072,3.072,0,0,0,3.068,3.068h.025v1.167a3.468,3.468,0,0,0,3.464,3.464H28.48a.693.693,0,1,0,0-1.386H20.413a2.081,2.081,0,0,1-2.079-2.079V46.856H32.341v1.167A2.059,2.059,0,0,1,31.9,49.3a.693.693,0,1,0,1.09.855,3.429,3.429,0,0,0,.737-2.138V46.855h.025a3.072,3.072,0,0,0,3.068-3.068V41.926A5.424,5.424,0,0,0,35.138,38v-1.27a12.636,12.636,0,0,1,2.955-8.093,13.962,13.962,0,0,0,2.925-5.866,8.312,8.312,0,0,0,2.8.463,14.426,14.426,0,0,0,6.515-1.819.692.692,0,0,0,.3-.834ZM42.766,17.85a4,4,0,0,1,1.295.824,4.01,4.01,0,0,1-1.523-.193,3.825,3.825,0,0,1-1.163-.708v-.119a3.8,3.8,0,0,1,1.389.2Zm-5.2-8.037a10.287,10.287,0,0,0,6.152-3.255l.037-.04-.069.969a4.846,4.846,0,0,1-3.9,4.409,8.823,8.823,0,0,0-2.216-2.083ZM10.893,11.894a4.846,4.846,0,0,1-3.9-4.409L6.92,6.517l.037.04a10.287,10.287,0,0,0,6.152,3.257A8.816,8.816,0,0,0,10.893,11.894ZM9.3,17.773a3.828,3.828,0,0,1-1.164.708,4,4,0,0,1-1.522.193,4,4,0,0,1,1.295-.824,3.79,3.79,0,0,1,1.391-.2Zm-.086,3.686c-2.937,1.061-6.346-.334-7.641-.962.591-1.311,2.315-4.561,5.259-5.626A7.127,7.127,0,0,1,9.617,14.5a8.456,8.456,0,0,0-.3,1.773,5.238,5.238,0,0,0-1.879.277,6.377,6.377,0,0,0-2.772,2.208.692.692,0,0,0,.4,1.1,8.354,8.354,0,0,0,1.8.209,5.134,5.134,0,0,0,1.745-.281,4.578,4.578,0,0,0,.692-.329,14.946,14.946,0,0,0,.11,1.929c-.062.028-.127.053-.192.076ZM35.434,41.927v1.861a1.684,1.684,0,0,1-1.683,1.683H16.924a1.684,1.684,0,0,1-1.683-1.683V41.927A4.049,4.049,0,0,1,16.7,38.818a4.108,4.108,0,0,1,2.6-.95H31.376a4.108,4.108,0,0,1,2.6.95A4.049,4.049,0,0,1,35.434,41.927Zm-2.155-5.094a5.484,5.484,0,0,0-1.9-.35H19.3a5.622,5.622,0,0,0-2.376.548v-.3a13.937,13.937,0,0,0-.109-1.719L20.4,32.478a8.183,8.183,0,0,0,2.3-10.825.693.693,0,1,0-1.19.71A6.791,6.791,0,0,1,19.6,31.346L16.54,33.507a13.933,13.933,0,0,0-2.9-5.763,12.58,12.58,0,0,1-2.788-6.07,31.09,31.09,0,0,1-.167-4.666,6.951,6.951,0,0,1,1.13-4.016,6.855,6.855,0,0,1,5.7-3.076H21.8a11.842,11.842,0,0,0-.843,1.488.693.693,0,1,0,1.255.587,10.427,10.427,0,0,1,.88-1.528l.38-.547h3.736l.381.547a10.352,10.352,0,0,1,.392,11.192,8.183,8.183,0,0,0,2.3,10.825l3.586,2.534a13.936,13.936,0,0,0-.109,1.719v.3c-.157-.069-.311-.141-.472-.2Zm3.753-9.089a13.925,13.925,0,0,0-2.9,5.762l-3.058-2.159a6.791,6.791,0,0,1-1.906-8.983,11.814,11.814,0,0,0-.277-12.449h4.267a6.855,6.855,0,0,1,5.7,3.076,6.951,6.951,0,0,1,1.128,4.017,31.139,31.139,0,0,1-.167,4.666,12.58,12.58,0,0,1-2.788,6.07Zm4.426-6.285-.2-.075a14.95,14.95,0,0,0,.11-1.929,4.59,4.59,0,0,0,.692.329,5.129,5.129,0,0,0,1.746.282,8.354,8.354,0,0,0,1.8-.209.692.692,0,0,0,.4-1.1,6.379,6.379,0,0,0-2.772-2.208,5.22,5.22,0,0,0-1.879-.277,8.482,8.482,0,0,0-.3-1.773,7.127,7.127,0,0,1,2.783.375c2.934,1.061,4.664,4.316,5.258,5.626-1.291.628-4.7,2.022-7.635.961Z" transform="translate(0.003 -3.877)"/>
      </g>
    </g>
  </g>
</svg>
