<svg xmlns="http://www.w3.org/2000/svg" xmlns:xlink="http://www.w3.org/1999/xlink" width="102" height="102" viewBox="0 0 102 102">
  <defs>
    <radialGradient id="radial-gradient" cx="0.5" cy="0.5" r="0.5" gradientUnits="objectBoundingBox">
      <stop offset="0" stop-color="#c6cfc8"/>
      <stop offset="1" stop-color="#9bb19f"/>
    </radialGradient>
    <filter id="Elipse_11490" x="0" y="0" width="102" height="102" filterUnits="userSpaceOnUse">
      <feOffset dy="3" input="SourceAlpha"/>
      <feGaussianBlur stdDeviation="3" result="blur"/>
      <feFlood flood-opacity="0.161"/>
      <feComposite operator="in" in2="blur"/>
      <feComposite in="SourceGraphic"/>
    </filter>
  </defs>
  <g id="Grupo_1099165" data-name="Grupo 1099165" transform="translate(-1209.333 -435)">
    <g transform="matrix(1, 0, 0, 1, 1209.33, 435)" filter="url(#Elipse_11490)">
      <g id="Elipse_11490-2" data-name="Elipse 11490" transform="translate(9 6)" stroke="#fff" stroke-width="4" fill="url(#radial-gradient)">
        <circle cx="42" cy="42" r="42" stroke="none"/>
        <circle cx="42" cy="42" r="40" fill="none"/>
      </g>
    </g>
    <g id="carne_1_" data-name="carne (1)" transform="translate(1228.108 394.095)">
      <path id="Trazado_873076" data-name="Trazado 873076" d="M27.754,95.784l.312,0A22.286,22.286,0,0,0,39.475,92.5,45.073,45.073,0,0,0,48.9,84.815c1.13-1.158,3.072-3.47,3.386-5.946a3.182,3.182,0,0,0-1.067-3.125c-1.447-1.132-4.227-1.145-8.5-.04a85.815,85.815,0,0,0-9.054,3.075c-.878.34-1.571.608-1.872.7a27.952,27.952,0,0,1-8.848.686c-1.109-.032-2.255-.064-3.407-.048-2.055.027-4.871.064-6.334,2.513-1.415,2.369-1.56,4.6-.432,6.617C15.2,93.589,23.146,95.716,27.754,95.784ZM14.38,83.326c.991-1.658,2.931-1.817,5.179-1.847q.3,0,.608,0c.922,0,1.844.026,2.741.052a29.417,29.417,0,0,0,9.267-.739c.359-.1,1.041-.368,1.986-.734a84.666,84.666,0,0,1,8.9-3.026c4.706-1.218,6.574-.785,7.313-.207A1.9,1.9,0,0,1,50.93,78.7c-.274,2.159-2.2,4.33-3.008,5.164h0c-4.426,4.546-11.282,10.558-19.872,10.558l-.275,0c-4.459-.066-11.738-2.133-13.807-5.841-.873-1.565-.734-3.331.412-5.25Zm42.047-5.1h0c0-.22-.011-.437-.031-.652A6.163,6.163,0,0,0,53.8,72.955c-6.03-4.268-13.562-1.193-19.061,1.051-1.5.613-2.919,1.191-4.087,1.53a26.436,26.436,0,0,1-7.932.527c-5.007-.155-10.183-.316-13.037,4.458A12.4,12.4,0,0,0,8,86.757v7.119A8.117,8.117,0,0,0,9.09,98.029a17.271,17.271,0,0,0,8.124,6.876,27.662,27.662,0,0,0,10.481,2.083c.127,0,.252,0,.379,0,8.1,0,15.662-3.889,23.767-12.21A15.352,15.352,0,0,0,55.428,88a33.908,33.908,0,0,0,1-9.769Zm-45.57,3c1.986-3.322,5.372-3.848,9.163-3.848.869,0,1.759.028,2.658.056a27.411,27.411,0,0,0,8.355-.58c1.237-.359,2.688-.951,4.223-1.577,5.5-2.244,12.337-5.036,17.754-1.2A4.834,4.834,0,0,1,55.034,77.7c.252,2.753-1.269,6.043-4.173,9.026C42.91,94.888,35.553,98.638,27.716,98.519c-4.674-.07-13.157-1.242-17.457-8.3-1.565-2.568-.859-6.55.6-8.993Zm40,12.6c-7.831,8.04-15.083,11.8-22.791,11.8l-.355,0c-4.674-.068-13.156-1.237-17.458-8.3a6.752,6.752,0,0,1-.886-3.448v-2.5A17.364,17.364,0,0,0,17.214,97.8a27.692,27.692,0,0,0,10.481,2.085c.127,0,.253,0,.379,0,8.1,0,15.661-3.889,23.766-12.21a19.138,19.138,0,0,0,3-3.954c-.517,4.447-1.879,7.944-3.981,10.1ZM22.492,90.6a2.918,2.918,0,1,0-2.92-2.92A2.922,2.922,0,0,0,22.492,90.6Zm0-4.47a1.551,1.551,0,1,1-1.552,1.55A1.551,1.551,0,0,1,22.492,86.13Z" transform="translate(0 0)"/>
      <path id="Trazado_873077" data-name="Trazado 873077" d="M40.355,224.855l.355,0c7.708,0,14.959-3.757,22.791-11.8,2.1-2.158,3.463-5.655,3.981-10.1a19.139,19.139,0,0,1-3,3.954c-8.105,8.322-15.669,12.21-23.766,12.21l-.379,0a27.691,27.691,0,0,1-10.481-2.085,17.363,17.363,0,0,1-7.842-6.433v2.5a6.753,6.753,0,0,0,.886,3.448c4.3,7.067,12.784,8.236,17.458,8.3Z" transform="translate(-12.639 -119.234)" fill="#dda57f"/>
      <path id="Trazado_873078" data-name="Trazado 873078" d="M40.368,111.015c7.838.119,15.194-3.631,23.145-11.794,2.9-2.983,4.425-6.273,4.173-9.026a4.834,4.834,0,0,0-2.023-3.628c-5.417-3.834-12.258-1.042-17.754,1.2-1.535.627-2.986,1.219-4.223,1.577a27.411,27.411,0,0,1-8.355.58c-.9-.028-1.79-.056-2.658-.056-3.791,0-7.177.526-9.163,3.848-1.458,2.443-2.164,6.426-.6,8.993,4.3,7.061,12.783,8.233,17.457,8.3ZM25.859,95.121c1.463-2.449,4.278-2.486,6.334-2.513,1.152-.016,2.3.017,3.407.048a27.955,27.955,0,0,0,8.848-.686c.3-.087.995-.356,1.872-.7A85.823,85.823,0,0,1,55.373,88.2c4.271-1.106,7.051-1.093,8.5.04a3.183,3.183,0,0,1,1.067,3.125c-.314,2.476-2.256,4.788-3.386,5.946a45.07,45.07,0,0,1-9.426,7.681,22.285,22.285,0,0,1-11.408,3.29l-.312,0c-4.608-.068-12.556-2.195-14.981-6.542-1.128-2.022-.982-4.249.432-6.617Z" transform="translate(-12.653 -12.496)" fill="#f3e8d6"/>
      <path id="Trazado_873079" data-name="Trazado 873079" d="M77.66,144.577l.275,0c8.59,0,15.445-6.012,19.872-10.558h0c.813-.833,2.735-3,3.008-5.164a1.9,1.9,0,0,0-.553-1.876c-.739-.578-2.607-1.011-7.313.207a84.7,84.7,0,0,0-8.9,3.026c-.944.366-1.627.63-1.986.734a29.418,29.418,0,0,1-9.267.739c-.9-.026-1.819-.052-2.741-.052q-.3,0-.608,0c-2.247.029-4.188.189-5.179,1.847-1.146,1.919-1.285,3.685-.412,5.25C65.921,142.444,73.2,144.51,77.66,144.577Zm-5.283-9.655a2.918,2.918,0,1,1-2.92,2.917A2.92,2.92,0,0,1,72.377,134.922Z" transform="translate(-49.885 -50.16)" fill="#aa4035"/>
      <path id="Trazado_873080" data-name="Trazado 873080" d="M142.01,230.689a1.551,1.551,0,1,0-1.552-1.553A1.553,1.553,0,0,0,142.01,230.689Z" transform="translate(-119.518 -141.457)" fill="#f3e8d6"/>
    </g>
  </g>
</svg>
