<svg xmlns="http://www.w3.org/2000/svg" width="14" height="13.986" viewBox="0 0 14 13.986">
  <path id="flecha" d="M4284.517,1900.749a7,7,0,1,0-7,7.2A6.978,6.978,0,0,0,4284.517,1900.749Zm-2.653-1.241c-.307.314-.62.623-.931.932-.19.189-.384.375-.576.563a.269.269,0,0,1-.1.1c-.243.26-.49.517-.757.751a.045.045,0,0,1-.027.011.187.187,0,0,1-.134.134.045.045,0,0,1-.012.026h0a10.637,10.637,0,0,1-.752.757h0a.208.208,0,0,1-.129.108.041.041,0,0,1-.01.027h0a9.685,9.685,0,0,1-.786.785l-.1.105a11.909,11.909,0,0,1-.862.871c-.2.188-.473.133-.685-.106a1.905,1.905,0,0,1-.3-.295h0l-.6-.6a2.091,2.091,0,0,1-.3-.3h0l-.63-.628a1.668,1.668,0,0,1-.262-.261l-.032-.034h0l-.6-.6-.033-.033c-.348-.295-.348-.565,0-.859l.033-.033a3.852,3.852,0,0,1,.593-.568c.016-.029.042-.026.069-.023a.494.494,0,0,1,.529.167c.11.12.226.236.34.353q.689.684,1.381,1.368c.173.172.173.173.355.021l.462-.463h0a4.367,4.367,0,0,1,.461-.461l.4-.4.034-.032h0l.494-.495h0l.4-.393a4.8,4.8,0,0,1,.464-.463,4.718,4.718,0,0,1,.461-.461,4.929,4.929,0,0,1,.461-.463c.149-.153.292-.312.449-.457a.44.44,0,0,1,.612.01c.218.209.433.421.641.64A.438.438,0,0,1,4281.864,1899.509Z" transform="translate(-4270.52 -1893.96)" fill="#748578"/>
</svg>
