<svg xmlns="http://www.w3.org/2000/svg" xmlns:xlink="http://www.w3.org/1999/xlink" width="120" height="120" viewBox="0 0 120 120"><defs><filter id="a" x="0" y="0" width="120" height="120" filterUnits="userSpaceOnUse"><feOffset dy="3" input="SourceAlpha"/><feGaussianBlur stdDeviation="3" result="b"/><feFlood flood-opacity="0.161"/><feComposite operator="in" in2="b"/><feComposite in="SourceGraphic"/></filter><filter id="c" x="5.719" y="5.719" width="108.563" height="108.563" filterUnits="userSpaceOnUse"><feOffset dy="3" input="SourceAlpha"/><feGaussianBlur stdDeviation="3" result="d"/><feFlood flood-opacity="0.161"/><feComposite operator="in" in2="d"/><feComposite in="SourceGraphic"/></filter></defs><g transform="translate(-11720.281 9099.757)"><g transform="translate(11345.281 -9863.757)"><g transform="matrix(1, 0, 0, 1, 375, 764)" filter="url(#a)"><circle cx="51" cy="51" r="51" transform="translate(9 6)" fill="#e6f1e8"/></g><g transform="matrix(1, 0, 0, 1, 375, 764)" filter="url(#c)"><circle cx="45.281" cy="45.281" r="45.281" transform="translate(14.72 11.72)" fill="#f9f9f9"/></g></g><path d="M-1.5-9.406q0,4.719-1.953,7.219A6.817,6.817,0,0,1-9.172.313a6.865,6.865,0,0,1-5.687-2.453q-1.969-2.453-2.016-7.031v-4.187q0-4.766,1.977-7.234a6.868,6.868,0,0,1,5.7-2.469,6.875,6.875,0,0,1,5.688,2.445q1.969,2.445,2.016,7.023ZM-6.016-14a8.316,8.316,0,0,0-.773-4.117A2.614,2.614,0,0,0-9.2-19.406a2.568,2.568,0,0,0-2.352,1.227,7.782,7.782,0,0,0-.8,3.836v5.531A8.729,8.729,0,0,0-11.6-4.68a2.58,2.58,0,0,0,2.43,1.352,2.536,2.536,0,0,0,2.391-1.3,8.52,8.52,0,0,0,.766-3.969Zm12.156.625H8.547a3.391,3.391,0,0,0,2.547-.859,3.149,3.149,0,0,0,.828-2.281,2.784,2.784,0,0,0-.82-2.141,3.179,3.179,0,0,0-2.258-.766,3.332,3.332,0,0,0-2.172.711A2.273,2.273,0,0,0,5.8-16.859H1.281a5.553,5.553,0,0,1,.961-3.2A6.4,6.4,0,0,1,4.93-22.266a8.969,8.969,0,0,1,3.8-.8,8.506,8.506,0,0,1,5.656,1.727,5.891,5.891,0,0,1,2.047,4.758,4.787,4.787,0,0,1-.953,2.875,6.192,6.192,0,0,1-2.5,2.016,5.653,5.653,0,0,1,2.867,2.063,5.6,5.6,0,0,1,.945,3.25,5.988,5.988,0,0,1-2.211,4.859A8.89,8.89,0,0,1,8.734.313a8.429,8.429,0,0,1-5.57-1.8A5.868,5.868,0,0,1,1-6.234H5.516a2.616,2.616,0,0,0,.961,2.094,3.541,3.541,0,0,0,2.367.813,3.558,3.558,0,0,0,2.523-.852,2.94,2.94,0,0,0,.914-2.258q0-3.406-3.75-3.406H6.141Z" transform="translate(11780 -9030)" fill="#12263f"/></g></svg>