<svg xmlns="http://www.w3.org/2000/svg" xmlns:xlink="http://www.w3.org/1999/xlink" width="80" height="80" viewBox="0 0 80 80">
  <defs>
    <radialGradient id="radial-gradient" cx="0.5" cy="0.5" r="0.5" gradientUnits="objectBoundingBox">
      <stop offset="0" stop-color="#ffd4a3"/>
      <stop offset="1" stop-color="#f9a545"/>
    </radialGradient>
    <filter id="Elipse_11492" x="0" y="0" width="80" height="80" filterUnits="userSpaceOnUse">
      <feOffset dy="3" input="SourceAlpha"/>
      <feGaussianBlur stdDeviation="3" result="blur"/>
      <feFlood flood-opacity="0.161"/>
      <feComposite operator="in" in2="blur"/>
      <feComposite in="SourceGraphic"/>
    </filter>
    <clipPath id="clip-path">
      <rect id="Rectángulo_403053" data-name="Rectángulo 403053" width="35.608" height="31.502" transform="translate(0 0)" fill="none"/>
    </clipPath>
  </defs>
  <g id="img09" transform="translate(-1273.262 -252.929)">
    <g transform="matrix(1, 0, 0, 1, 1273.26, 252.93)" filter="url(#Elipse_11492)">
      <g id="Elipse_11492-2" data-name="Elipse 11492" transform="translate(9 6)" stroke="#fff" stroke-width="4" fill="url(#radial-gradient)">
        <circle cx="31" cy="31" r="31" stroke="none"/>
        <circle cx="31" cy="31" r="29" fill="none"/>
      </g>
    </g>
    <g id="Grupo_1103655" data-name="Grupo 1103655" transform="translate(1295.458 274.178)">
      <g id="Grupo_1103654" data-name="Grupo 1103654" transform="translate(0 -0.001)" clip-path="url(#clip-path)">
        <path id="Trazado_876191" data-name="Trazado 876191" d="M6.451,15.219c-.191-.472-.6-.824-.769-1.3a.871.871,0,0,0-1.072-.64,3.4,3.4,0,0,1-1.223-.042,2.246,2.246,0,0,1-1.7-1.965,3.019,3.019,0,0,1,.047-1.023A2.113,2.113,0,0,1,2.813,8.846c.1-.054.191-.087.173-.248-.073-.654-.133-1.309-.184-1.965-.013-.166-.062-.215-.235-.23A2.608,2.608,0,0,1,.13,4.684,3.915,3.915,0,0,1,.008,3.325c0-.119.076-.161.174-.193a2.345,2.345,0,0,1,.7-.112c.534-.008,1.069,0,1.6-.005.067,0,.134,0,.2,0a.182.182,0,0,0,.184-.15c.02-.1-.068-.121-.137-.153a7.548,7.548,0,0,1-.941-.478A2.182,2.182,0,0,1,.809.788.572.572,0,0,1,.793.618C.818.373.869.137,1.133.037a.628.628,0,0,1,.675.191,1.473,1.473,0,0,1,.3.484,1.564,1.564,0,0,0,1.725.812.6.6,0,0,0,.277-.195A2.975,2.975,0,0,1,7.021.514a2.824,2.824,0,0,1,1.729.981.385.385,0,0,0,.324.151A1.728,1.728,0,0,0,10.87.594a1.506,1.506,0,0,1,.139-.249A.574.574,0,0,1,11.687.05a.608.608,0,0,1,.43.637,2.217,2.217,0,0,1-.869,1.49,2.984,2.984,0,0,1-1.149.553c-.087.025-.244.012-.215.167.025.131.155.114.26.114h2.577l19.04,0a4.092,4.092,0,0,1,2.043.442,3.315,3.315,0,0,1,1.758,2.56c0,.047-.013.094-.013.141q0,5.355,0,10.71a.655.655,0,0,1-.781.68.375.375,0,0,1-.365-.264c-.007-.191-.019-.381-.019-.572q0-4.682,0-9.364c0-.382-.017-.762-.053-1.143A2.187,2.187,0,0,0,33,4.382c-.1-.052-.152-.04-.205.051-.348.595-.831,1.092-1.209,1.665a2.751,2.751,0,0,0-.506,1.169,2.582,2.582,0,0,0,2.176,2.88c.582.106.619.145.622.744,0,.859.012,1.718,0,2.577a2.723,2.723,0,0,1-.264,1.189c-.184.367-.391.72-.61,1.066a2.123,2.123,0,0,0-.313,1.5q0,3.205-.012,6.411c0,.154.056.2.2.2.42,0,.84,0,1.259.018.2.008.259-.064.256-.262-.01-.7,0-1.393,0-2.09a1.153,1.153,0,0,1,.112-.525.546.546,0,0,1,.618-.3.517.517,0,0,1,.434.543q0,3.964,0,7.929c0,.639.007,1.278.011,1.917a.722.722,0,0,1-.67.436q-15.615-.014-31.23-.01H.83c-.544,0-.837-.17-.83-.813.021-2.013.007-4.027.008-6.04,0-.622.214-.832.845-.836.292,0,.584,0,.912,0-.288-.447-.576-.891-.86-1.338a5.132,5.132,0,0,1-.523-.882c-.17-.442-.03-.781.432-.828a3.671,3.671,0,0,1,2.962.72c.154.134.227.431.419.405.157-.021.282-.263.426-.4a2.884,2.884,0,0,1,1.762-.726c.034.015.058.009.067-.031h0l.055-.007c.315,0,.63-.012.944,0a.531.531,0,0,1,.476.837c-.06.108-.133.209-.2.313C7.363,22.439,7,23.01,6.64,23.582c-.079.126-.138.24.112.239q1.588-.005,3.177.012c.176,0,.232-.058.232-.23,0-1.784,0-3.568,0-5.352,0-.122.011-.258-.1-.341a3.533,3.533,0,0,1-.96-1.229.441.441,0,0,0-.446-.265,2.249,2.249,0,0,1-2.094-1.047c-.009-.015-.03-.022-.046-.032a.115.115,0,0,0-.055-.118m11.506,8.594c.108.02.223.071.3-.058l0-.022c.007-.5.019-1.006.019-1.509q0-2.838-.011-5.676c.2-.349.383-.465.641-.408a.739.739,0,0,1,.541.694,2.406,2.406,0,0,1,.006.286c-.011.25.084.343.353.342,2.213-.011,4.426-.006,6.639-.006.076,0,.151-.011.226-.016a4.339,4.339,0,0,0,.6,0,.983.983,0,0,1,1.145.694c.5,1.133,1.042,2.246,1.594,3.353A3.086,3.086,0,0,1,30.4,23.1c-.015.226-.078.519.033.666.133.176.445.027.675.07.284.054.369-.036.368-.339-.012-2.174,0-4.348,0-6.522a3.106,3.106,0,0,1,.5-1.842c.185-.265.329-.557.493-.837a1.557,1.557,0,0,0,.213-.819c-.008-.658-.019-1.316-.022-1.973,0-.154-.036-.229-.211-.265a2.571,2.571,0,0,1-1.353-.755c-.223-.231-.431-.477-.646-.716a7.9,7.9,0,0,1-.62-1.672,4.445,4.445,0,0,1,.453-2.156,9.619,9.619,0,0,1,.983-1.471c.044-.056.133-.111.094-.191s-.138-.041-.209-.041c-1.5,0-2.995,0-4.492,0-.2,0-.26.07-.269.262a1.721,1.721,0,0,1-.267.834,2.2,2.2,0,0,1-2.256,1.079,2.246,2.246,0,0,1-1.789-1.886c-.048-.362-.268-.3-.5-.337-.257-.038-.311.087-.369.3a2.3,2.3,0,0,1-1.59,1.726c-.19.06-.47-.026-.558.171a1.456,1.456,0,0,0-.012.622,2.2,2.2,0,0,0,1.927,2.055.953.953,0,0,0,.948-.342A.837.837,0,0,0,21.9,7.8c-.02-.043-.044-.084-.065-.127a.54.54,0,0,1,.118-.719.532.532,0,0,1,.707-.04,1.578,1.578,0,0,1,.61.838c-.036.051-.012.1,0,.156a.088.088,0,0,0,.007.121q-.014.185-.028.371a1.953,1.953,0,0,1-1.419,1.811,2.808,2.808,0,0,1-2.782-.69,3.963,3.963,0,0,1-1.15-3.843c.039-.27.231-.374.468-.433.3-.073.593-.142.884-.23a1.116,1.116,0,0,0,.681-.488c.044-.075.144-.16.08-.252-.051-.074-.16-.03-.243-.03-2.271,0-4.542,0-6.812-.016a.419.419,0,0,0-.491.358,2.25,2.25,0,0,1-1.61,1.664,3.15,3.15,0,0,1-.906.1c-.2-.006-.27.076-.293.283a13.675,13.675,0,0,1-.339,2.545.292.292,0,0,0,.06.264,2.443,2.443,0,0,1-1.33,3.757c-.155.051-.193.115-.191.256,0,.391,0,.782,0,1.173,0,.352.107.484.463.528a4.556,4.556,0,0,0,.743.02.813.813,0,0,1,.845.5,5.418,5.418,0,0,0,1.232,1.563.735.735,0,0,0,.537.22c.544-.009,1.087-.022,1.631-.029.121,0,.179-.021.126-.162a2.518,2.518,0,0,1-.126-.872,1.773,1.773,0,0,1,1.413-1.767,1.865,1.865,0,0,1,2.128,1.19,2.977,2.977,0,0,1,.095.876c-.052.023-.055.071-.064.118a1.823,1.823,0,0,1-1.139,1.4c-.206.087-.243.179-.16.377q.464,1.107.908,2.221a5,5,0,0,1,.578,2.356c-.066.706-.013.711.7.658a.357.357,0,0,0,.08-.026h.113m16.417,6.415q0-2.463,0-4.926c.01-.081.032-.163-.033-.233a4.815,4.815,0,0,0-1.244-.048q-15.782-.01-31.564-.005c-.1,0-.21-.032-.3.037v.013c-.1.064-.044.155-.038.236q0,2.317,0,4.633c0,.412-.055.372.359.372q8.453,0,16.905,0c.123,0,.247-.011.37-.018.057,0,.113.014.17.014H34.053c.076,0,.151-.009.227-.014l.058-.009c.041,0,.051-.015.035-.051M11.941,23.8a.617.617,0,0,0,.289,0c.449.032.45.032.45-.407,0-1.482,0-2.964,0-4.445,0-.216-.038-.337-.283-.266a2.3,2.3,0,0,0-.576-.018c-.49-.081-.491-.081-.491.4q0,2.126,0,4.252c0,.575,0,.575.605.49M4.156,9.816a1.716,1.716,0,0,0-.532.088,1.07,1.07,0,0,0-.75,1.169,1.112,1.112,0,0,0,1.011,1.035c1.163.013,2.326.018,3.489-.009a1.306,1.306,0,0,0,1.219-1.256A1.007,1.007,0,0,0,7.534,9.808c-.8-.051-1.61-.014-2.415-.02a4.591,4.591,0,0,0-.963.028M22.568,18.67c-.935,0-1.87.006-2.805,0-.217,0-.293.044-.291.281q.019,2.3,0,4.608c0,.219.048.3.283.3q2.819-.018,5.638-.012c.19,0,.238-.055.237-.239q-.009-2.347,0-4.694c0-.217-.079-.244-.265-.243-.935.008-1.87,0-2.805,0M8.479,6.041c-.1.142-.164.214-.212.293a.527.527,0,0,1-.593.3.616.616,0,0,1-.489-.5,1.481,1.481,0,0,1,.171-1.049c.32-.623.537-.6.984-.348.292.163.353.127.391-.208a1.883,1.883,0,0,0-.673-1.968.6.6,0,0,1-.121-.121,2.068,2.068,0,0,0-2.236-.7.883.883,0,0,0-.766.6.4.4,0,0,1-.278.261,1.31,1.31,0,0,0-.616.533c-.423.589-.186,1.222-.17,1.853.524-.214.684-.2.9.048a1.2,1.2,0,0,1,.148,1.212c-.227.37-.563.347-.941.186.056.625.127,1.211.155,1.8.014.291.1.37.4.375A29.2,29.2,0,0,1,8.1,8.68c.159.022.17-.06.173-.18a9.613,9.613,0,0,1,.115-1.137,4.387,4.387,0,0,0,.092-1.323M13.931,21.2h-.059q0,1.2,0,2.4c0,.12-.036.251.17.248.543-.008,1.086,0,1.63,0,.1,0,.157-.028.162-.143a3.732,3.732,0,0,0-.161-1.606q-.67-1.666-1.317-3.342c-.057-.147-.128-.21-.291-.193-.192.021-.131.159-.132.258,0,.791,0,1.582,0,2.373m12.91.069h0c0,.772,0,1.543,0,2.315,0,.19.044.285.254.269a4.244,4.244,0,0,1,.571,0c.173.01.245-.058.24-.229-.006-.238,0-.476-.006-.715a4.3,4.3,0,0,1,.356-2.059.282.282,0,0,0-.043-.317A7.372,7.372,0,0,1,27.6,19.37c-.075-.175-.162-.344-.238-.519-.082-.19-.247-.149-.393-.139-.185.012-.121.166-.121.266,0,.762,0,1.524,0,2.287m-2.6-16.988V4.248c-.257,0-.514.009-.77,0-.189-.008-.229.051-.179.233A.97.97,0,0,0,25.2,4.419c.03-.137-.039-.143-.135-.143h-.827m-9.76,12.178a.659.659,0,0,0,.687.646.622.622,0,0,0,.564-.635.636.636,0,0,0-.638-.629.623.623,0,0,0-.613.617M2.064,22.01c.384.588.745,1.143,1.11,1.7a.308.308,0,0,0,.41.088c.145-.064.09-.217.053-.327a2.649,2.649,0,0,0-.769-1.076,1.531,1.531,0,0,0-.8-.38M10.729,4.254c-.73-.007-.711-.081-.9.537-.085.28.056.436.345.384A1.467,1.467,0,0,0,11.2,4.512c.136-.213.085-.283-.156-.26-.1.01-.21,0-.314,0M1.2,4.245a1.389,1.389,0,0,0,.914.861c.6.154.668.094.517-.506-.037-.147-.055-.3-.262-.322A8.038,8.038,0,0,0,1.2,4.245M6.115,22.054a1.652,1.652,0,0,0-1.3,1.641c.022.1.08.108.159.12.111.017.181,0,.209-.127a2.338,2.338,0,0,1,.252-.572,11.21,11.21,0,0,1,.68-1.061" transform="translate(0 0)" fill="#0c0c0b"/>
        <path id="Trazado_876192" data-name="Trazado 876192" d="M112.572,267.7c.016.011.037.018.046.032a2.249,2.249,0,0,0,2.094,1.047.441.441,0,0,1,.446.266,3.533,3.533,0,0,0,.96,1.229c.116.084.1.219.1.341,0,1.784,0,3.568,0,5.352,0,.172-.056.232-.232.23q-1.588-.016-3.177-.012c-.251,0-.192-.113-.112-.239.36-.573.723-1.143,1.086-1.714.066-.1.139-.206.2-.313a.53.53,0,0,0-.476-.837c-.314-.011-.629,0-.944,0q0-2.474-.005-4.947c0-.109.043-.231-.055-.325l0-.1.057-.009" transform="translate(-106.066 -252.366)" fill="#d1d589"/>
        <path id="Trazado_876193" data-name="Trazado 876193" d="M572.12,116.3a.375.375,0,0,0,.365.264.655.655,0,0,0,.781-.68q0-5.355,0-10.71c0-.047.008-.094.013-.141a.729.729,0,0,1,.035.391q0,5.323,0,10.647,0,6.854,0,13.708c0,.1.038.21-.035.3,0-.639-.01-1.278-.01-1.917q0-3.964,0-7.929a.517.517,0,0,0-.434-.543.546.546,0,0,0-.618.3,1.153,1.153,0,0,0-.112.525c0,.7-.007,1.393,0,2.09,0,.2-.053.27-.256.262-.419-.017-.839-.018-1.259-.018-.143,0-.2-.043-.2-.2q.011-3.205.012-6.411a6.53,6.53,0,0,0,1.312.112c.136,0,.284.055.406-.055" transform="translate(-537.713 -99.017)" fill="#c9cd88"/>
        <path id="Trazado_876194" data-name="Trazado 876194" d="M112.512,269.617c.1.095.054.216.055.325q.006,2.473.005,4.947l-.055.007q0-2.64,0-5.279" transform="translate(-106.066 -254.17)" fill="#9fa88e"/>
        <path id="Trazado_876195" data-name="Trazado 876195" d="M112.632,265.769l-.057.009c0-.042,0-.084,0-.127a.115.115,0,0,1,.055.118" transform="translate(-106.125 -250.432)" fill="#9fa88e"/>
        <path id="Trazado_876196" data-name="Trazado 876196" d="M111.508,361.665c-.009.04-.033.045-.067.031a.046.046,0,0,1,.067-.031" transform="translate(-105.056 -340.941)" fill="#9fa88e"/>
        <path id="Trazado_876197" data-name="Trazado 876197" d="M54.486,442.53c-.076,0-.151.014-.227.014H39.195c-.057,0-.113-.009-.17-.014-.1-.112-.233-.061-.351-.061q-8.385,0-16.769,0c-.455,0-.407.045-.407-.42,0-1.412,0-2.824,0-4.235,0-.109.042-.231-.053-.327l-.008-.178v-.013c.123.006.247.017.37.017l28.134,0q2.3,0,4.608,0c.065.07.043.152.033.233-.157.059-.089.2-.089.3q-.007,2.345,0,4.69M30.244,440.1c-.124-.078-.164-.212-.241-.317a1.607,1.607,0,0,0-.475-.485.5.5,0,0,0-.61.012.539.539,0,0,0-.2.584.854.854,0,0,0,.1.267c.291.468.57.945.892,1.391a.6.6,0,0,0,1.018.017,14.867,14.867,0,0,0,.927-1.4.579.579,0,0,0-.2-.8.558.558,0,0,0-.806.144c-.148.182-.266.388-.4.587m-4.142-.209a.61.61,0,0,0-.374-.589.536.536,0,0,0-.643.162,1.86,1.86,0,0,0-.18.221c-.094.129-.185.37-.275.369-.158,0-.2-.238-.306-.368-.325-.413-.668-.537-.967-.336-.327.22-.35.572-.054,1.034.236.368.481.731.73,1.091a.617.617,0,0,0,1.141-.006c.257-.377.494-.768.779-1.125a.682.682,0,0,0,.15-.452m25.229.188a2.767,2.767,0,0,0-.467-.6.633.633,0,0,0-.808-.111.648.648,0,0,0-.155.826,14.451,14.451,0,0,0,.99,1.421.536.536,0,0,0,.851,0,17.315,17.315,0,0,0,1.034-1.564.536.536,0,0,0-.209-.722.521.521,0,0,0-.738.11c-.169.192-.316.4-.5.639m-14.474.058a2.5,2.5,0,0,0-.491-.708.56.56,0,0,0-.948.217.781.781,0,0,0,.069.612c.281.441.561.885.875,1.3a.576.576,0,0,0,.975.031,17.828,17.828,0,0,0,.991-1.5.568.568,0,0,0-.2-.733.5.5,0,0,0-.676.043,3.445,3.445,0,0,0-.593.736m8.868.029a2.143,2.143,0,0,0-.494-.7.587.587,0,0,0-.629-.149.61.61,0,0,0-.354.574.748.748,0,0,0,.173.5c.258.342.494.7.735,1.052a.665.665,0,0,0,1.2-.012c.253-.391.5-.788.758-1.174a.668.668,0,0,0-.082-.882c-.234-.195-.552-.143-.842.134a3.991,3.991,0,0,0-.466.659" transform="translate(-20.206 -412.241)" fill="#c5d5b0"/>
        <path id="Trazado_876198" data-name="Trazado 876198" d="M159.029,77.737a7.9,7.9,0,0,0,.62,1.672,4.023,4.023,0,0,1-.34.811,2.56,2.56,0,0,0-.979.164,1.85,1.85,0,0,0-.974,2.418c-.011.124-.1.114-.189.114L156,82.909c-.1-.119-.181-.247-.287-.356a1.672,1.672,0,0,0-1.911-.44,1.806,1.806,0,0,0-.234,3.355,2.065,2.065,0,0,0,1.947-.084,10.083,10.083,0,0,1,.368,1.691c-.076.006-.151.017-.227.017-2.213,0-4.426,0-6.639.006-.269,0-.364-.092-.353-.342a2.4,2.4,0,0,0-.006-.286.74.74,0,0,0-.541-.694c-.258-.057-.44.059-.641.408-.178.136-.365.262-.53.411a.289.289,0,0,1-.4.029c-.147-.082-.218-.266-.4-.283a2.978,2.978,0,0,0-.095-.876,1.865,1.865,0,0,0-2.128-1.19,1.772,1.772,0,0,0-1.413,1.767,2.519,2.519,0,0,0,.126.872c.053.141-.005.161-.126.162-.544.007-1.087.02-1.631.029a.735.735,0,0,1-.537-.22,5.42,5.42,0,0,1-1.232-1.563.813.813,0,0,0-.845-.5,4.555,4.555,0,0,1-.743-.02c-.357-.044-.461-.176-.463-.528,0-.391,0-.782,0-1.173,0-.141.036-.205.191-.256a2.443,2.443,0,0,0,1.33-3.757.292.292,0,0,1-.06-.264,13.67,13.67,0,0,0,.339-2.545c.022-.207.089-.289.293-.283a3.152,3.152,0,0,0,.906-.1,2.25,2.25,0,0,0,1.61-1.664.419.419,0,0,1,.491-.358c2.271.017,4.541.012,6.812.016.082,0,.192-.044.243.03.064.092-.036.177-.08.252a1.116,1.116,0,0,1-.681.487c-.292.087-.589.156-.884.23-.237.059-.429.162-.468.433a3.963,3.963,0,0,0,1.15,3.843,2.808,2.808,0,0,0,2.782.69,1.953,1.953,0,0,0,1.419-1.81q.014-.185.028-.37a.1.1,0,0,0-.007-.121c-.008-.052-.032-.1,0-.156a10.915,10.915,0,0,1,1.593.64c.006.1.01.208.019.312a1.759,1.759,0,0,0,2.555,1.548,1.808,1.808,0,0,0,1.077-1.624l.06-.108a.077.077,0,0,0,.035,0,.821.821,0,0,0,.517-.114l.7-.305M146.653,83.9a1.845,1.845,0,0,0,1.876-1.858,1.817,1.817,0,1,0-3.635-.025,1.766,1.766,0,0,0,1.759,1.883m-6.881-1.742a1.83,1.83,0,0,0,1.756,1.821,1.78,1.78,0,0,0,1.905-1.774,1.832,1.832,0,1,0-3.661-.047" transform="translate(-129.201 -69.636)" fill="#f7ecc6"/>
        <path id="Trazado_876199" data-name="Trazado 876199" d="M463.063,171.382a4.023,4.023,0,0,0,.34-.811c.215.239.423.484.646.716a2.571,2.571,0,0,0,1.353.755c.174.036.21.111.211.265,0,.658.015,1.316.022,1.973a1.558,1.558,0,0,1-.213.819c-.163.28-.308.572-.493.837a3.106,3.106,0,0,0-.5,1.842c0,2.174-.012,4.348,0,6.522,0,.3-.083.393-.368.339-.229-.043-.541.106-.675-.07-.111-.147-.048-.44-.033-.666a3.087,3.087,0,0,0-.38-1.617c-.552-1.108-1.1-2.22-1.594-3.353a.983.983,0,0,0-1.145-.694,4.318,4.318,0,0,1-.6,0,10.075,10.075,0,0,0-.367-1.691,2.262,2.262,0,0,0,.687-1.939.122.122,0,0,0-.037-.132l-.011-.073c-.019-.151.031-.224.2-.22.368.009.736,0,1.1,0,.043.051.088.1.128.153a1.824,1.824,0,0,0,3.067-.213,1.887,1.887,0,0,0-1.343-2.742" transform="translate(-432.955 -160.799)" fill="#e98665"/>
        <path id="Trazado_876200" data-name="Trazado 876200" d="M342.98,325.8c.935,0,1.87,0,2.805,0,.186,0,.267.026.265.243q-.016,2.347,0,4.694c0,.185-.047.24-.237.239q-2.819-.005-5.638.012c-.234,0-.284-.08-.283-.3q.012-2.3,0-4.608c0-.237.074-.283.291-.281.935.011,1.87,0,2.805,0" transform="translate(-320.412 -307.133)" fill="#d1d589"/>
        <path id="Trazado_876201" data-name="Trazado 876201" d="M342.835,76.9l-.7.305c-.179.01-.372-.047-.517.114a.078.078,0,0,1-.035,0l-.06-.013c-.006-.047-.012-.094-.019-.142a1.878,1.878,0,0,0-1.61-1.558,1.686,1.686,0,0,0-1.8.939,5.078,5.078,0,0,0-.227.644,10.914,10.914,0,0,0-1.593-.64,1.577,1.577,0,0,0-.61-.838.532.532,0,0,0-.707.04.54.54,0,0,0-.118.719c.021.043.045.084.065.127a.837.837,0,0,1,.027.918.953.953,0,0,1-.948.342,2.2,2.2,0,0,1-1.927-2.055,1.455,1.455,0,0,1,.012-.622c.088-.2.367-.111.558-.171a2.3,2.3,0,0,0,1.59-1.726c.058-.214.112-.34.369-.3.229.034.448-.025.5.337a2.246,2.246,0,0,0,1.789,1.886,2.2,2.2,0,0,0,2.256-1.079,1.721,1.721,0,0,0,.267-.834c.009-.192.067-.263.269-.263,1.5.007,2.995,0,4.492.005.072,0,.169-.04.209.041s-.05.135-.094.191a9.62,9.62,0,0,0-.983,1.471,4.447,4.447,0,0,0-.453,2.156" transform="translate(-313.007 -68.798)" fill="#e98665"/>
        <path id="Trazado_876202" data-name="Trazado 876202" d="M70.847,33.315a4.385,4.385,0,0,1-.092,1.323,9.623,9.623,0,0,0-.115,1.137c0,.12-.014.2-.173.18a29.2,29.2,0,0,0-3.572-.085c-.3-.005-.384-.084-.4-.375-.027-.589-.1-1.175-.155-1.8.378.161.713.184.941-.186a1.2,1.2,0,0,0-.148-1.212c-.212-.251-.372-.262-.9-.048-.015-.631-.253-1.264.17-1.853a1.311,1.311,0,0,1,.616-.533A.4.4,0,0,0,67.3,29.6a.884.884,0,0,1,.766-.6,2.068,2.068,0,0,1,2.236.7.6.6,0,0,0,.121.121A1.883,1.883,0,0,1,71.1,31.8c-.038.335-.1.371-.391.208-.447-.249-.663-.275-.984.348a1.481,1.481,0,0,0-.171,1.049.616.616,0,0,0,.489.5.527.527,0,0,0,.593-.3c.048-.079.108-.151.212-.293" transform="translate(-62.368 -27.274)" fill="#f7ecc6"/>
        <path id="Trazado_876203" data-name="Trazado 876203" d="M272.6,289.009c.187.017.258.2.4.283a.289.289,0,0,0,.4-.029c.165-.15.352-.275.53-.411q.006,2.838.011,5.676c0,.5-.012,1.006-.019,1.509-.007-.133-.019-.266-.02-.4q0-3.163,0-6.326a.508.508,0,0,0-.055-.339v6.6c0,.42,0,.42-.427.432-.01,0-.02.022-.028.032l.112.082a.354.354,0,0,1-.08.026c-.712.053-.765.048-.7-.658a5,5,0,0,0-.578-2.356q-.445-1.114-.908-2.221c-.083-.2-.046-.29.16-.377a1.823,1.823,0,0,0,1.139-1.4c.009-.047.012-.095.064-.118" transform="translate(-255.659 -272.302)" fill="#e58463"/>
        <path id="Trazado_876204" data-name="Trazado 876204" d="M54.672,171.206a1.007,1.007,0,0,1,1.058,1.036,1.306,1.306,0,0,1-1.219,1.256c-1.162.027-2.326.022-3.489.009a1.112,1.112,0,0,1-1.011-1.035,1.07,1.07,0,0,1,.75-1.169,1.718,1.718,0,0,1,.532-.088c.023.066.075.078.136.078h3.083c.069,0,.135,0,.159-.086m.595,1.156a.724.724,0,0,0-.685-.733.65.65,0,0,0-.6.678.708.708,0,0,0,.694.718.592.592,0,0,0,.586-.663m-4.192.656a.636.636,0,0,0,.618-.648.68.68,0,0,0-.677-.7.64.64,0,0,0-.617.651.668.668,0,0,0,.676.694" transform="translate(-47.138 -161.397)" fill="#e58463"/>
        <path id="Trazado_876205" data-name="Trazado 876205" d="M242.166,326.636c0-.791,0-1.582,0-2.373,0-.1-.06-.237.132-.258.162-.017.234.045.291.193q.65,1.674,1.317,3.342a3.732,3.732,0,0,1,.161,1.606c-.005.115-.06.143-.162.143-.543,0-1.087-.01-1.63,0-.206,0-.17-.128-.17-.248q0-1.2,0-2.4h.059" transform="translate(-228.234 -305.44)" fill="#d1d589"/>
        <path id="Trazado_876206" data-name="Trazado 876206" d="M200.287,330.773a.617.617,0,0,1-.289,0,.346.346,0,0,0-.1-.046c-.413-.044-.413-.043-.413-.465q0-2.026,0-4.052c0-.455,0-.455.4-.575a2.3,2.3,0,0,1,.576.018.484.484,0,0,1,.177.43c-.01,1.377-.007,2.755,0,4.132,0,.233.057.489-.311.483-.011,0-.023.048-.034.074" transform="translate(-188.056 -306.97)" fill="#e58463"/>
        <path id="Trazado_876207" data-name="Trazado 876207" d="M468.379,329c0-.762,0-1.524,0-2.287,0-.1-.064-.253.121-.266.146-.01.311-.051.393.139.076.174.163.344.238.519a7.371,7.371,0,0,0,.614,1.159.282.282,0,0,1,.043.316,4.3,4.3,0,0,0-.356,2.059c0,.238,0,.476.006.714,0,.171-.068.239-.24.229a4.238,4.238,0,0,0-.571,0c-.21.016-.256-.079-.254-.269.008-.772,0-1.543,0-2.315Z" transform="translate(-441.538 -307.739)" fill="#e28362"/>
        <path id="Trazado_876208" data-name="Trazado 876208" d="M54.546,436.522q-2.3,0-4.608,0l-28.134,0c-.123,0-.247-.011-.37-.017.095-.069.2-.037.3-.037q15.782,0,31.564.005a4.813,4.813,0,0,1,1.244.048" transform="translate(-20.206 -411.453)" fill="#5f6653"/>
        <path id="Trazado_876209" data-name="Trazado 876209" d="M20.7,440.628c.095.1.052.217.053.327,0,1.412,0,2.823,0,4.235,0,.465-.048.42.407.42q8.385,0,16.769,0c.117,0,.25-.05.351.061-.123.006-.247.018-.37.018q-8.452,0-16.9,0c-.414,0-.359.04-.359-.372q0-2.317,0-4.633l.047-.059" transform="translate(-19.464 -415.384)" fill="#d2dfc0"/>
        <path id="Trazado_876210" data-name="Trazado 876210" d="M407.126,74.118h.827c.1,0,.164.006.135.143a.97.97,0,0,1-1.911.059c-.05-.181-.01-.241.179-.233.256.012.513,0,.77,0Z" transform="translate(-382.889 -69.842)" fill="#f7ecc6"/>
        <path id="Trazado_876211" data-name="Trazado 876211" d="M252.7,277.042a.623.623,0,0,1,.613-.617.636.636,0,0,1,.638.629.622.622,0,0,1-.564.635.659.659,0,0,1-.687-.646" transform="translate(-238.224 -260.588)" fill="#e28362"/>
        <path id="Trazado_876212" data-name="Trazado 876212" d="M36.033,384.2a1.531,1.531,0,0,1,.8.38,2.648,2.648,0,0,1,.769,1.076c.036.11.092.263-.053.327a.308.308,0,0,1-.41-.088c-.365-.552-.725-1.107-1.11-1.7" transform="translate(-33.969 -362.184)" fill="#e7e6e5"/>
        <path id="Trazado_876213" data-name="Trazado 876213" d="M172.088,74.152c.1,0,.21.008.314,0,.242-.023.293.048.156.26a1.467,1.467,0,0,1-1.024.662c-.289.052-.43-.1-.345-.384.188-.618.168-.544.9-.537" transform="translate(-161.359 -69.898)" fill="#e28362"/>
        <path id="Trazado_876214" data-name="Trazado 876214" d="M20.962,73.965a8.046,8.046,0,0,1,1.17.032c.206.021.225.175.262.322.15.6.088.66-.517.506a1.389,1.389,0,0,1-.914-.861" transform="translate(-19.761 -69.72)" fill="#e28362"/>
        <path id="Trazado_876215" data-name="Trazado 876215" d="M85.092,384.95a11.214,11.214,0,0,0-.68,1.061,2.339,2.339,0,0,0-.252.572c-.028.125-.1.144-.209.127-.079-.012-.137-.017-.159-.12a1.652,1.652,0,0,1,1.3-1.641" transform="translate(-78.976 -362.896)" fill="#e7e6e5"/>
        <path id="Trazado_876216" data-name="Trazado 876216" d="M198.353,325.145c-.4.12-.4.12-.4.575v4.052c0,.422,0,.421.413.465a.347.347,0,0,1,.1.046c-.6.085-.605.085-.605-.49q0-2.126,0-4.252c0-.478,0-.478.491-.4" transform="translate(-186.527 -306.479)" fill="#e28362"/>
        <path id="Trazado_876217" data-name="Trazado 876217" d="M213.484,330.91c.011-.026.023-.074.034-.074.367.007.311-.249.311-.483,0-1.377-.006-2.755,0-4.132a.484.484,0,0,0-.177-.43c.245-.07.284.05.283.266-.007,1.482,0,2.964,0,4.445,0,.439,0,.439-.45.407" transform="translate(-201.253 -307.107)" fill="#e28362"/>
        <path id="Trazado_876218" data-name="Trazado 876218" d="M598.181,446.64q0-2.345,0-4.69c0-.1-.068-.237.089-.3v4.926l-.036.051-.058.009" transform="translate(-563.9 -416.351)" fill="#d2dfc0"/>
        <path id="Trazado_876219" data-name="Trazado 876219" d="M309.629,298.109l-.112-.082c.008-.009.017-.031.028-.031.427-.013.427-.013.427-.432q0-3.12,0-6.24v-.358a.508.508,0,0,1,.055.339q0,3.163,0,6.326c0,.133.013.266.02.4l0,.022c-.1.014-.217-.041-.3.058h-.113" transform="translate(-291.785 -274.295)" fill="#e98665"/>
        <path id="Trazado_876220" data-name="Trazado 876220" d="M75.917,170.691c-.023.083-.089.086-.159.086H72.675c-.061,0-.113-.012-.136-.078a4.591,4.591,0,0,1,.963-.028c.8.006,1.61-.031,2.415.02" transform="translate(-68.383 -160.883)" fill="#e98665"/>
        <path id="Trazado_876221" data-name="Trazado 876221" d="M313.443,414.656c.086-.1.2-.044.3-.058-.08.129-.194.078-.3.058" transform="translate(-295.486 -390.843)" fill="#e58463"/>
        <path id="Trazado_876222" data-name="Trazado 876222" d="M20.474,437.707l-.047.059c-.006-.082-.063-.172.038-.236l.008.178" transform="translate(-19.238 -412.463)" fill="#9fa88e"/>
        <path id="Trazado_876223" data-name="Trazado 876223" d="M405.749,138.1a.1.1,0,0,1,.007.121.088.088,0,0,1-.007-.121" transform="translate(-382.484 -130.184)" fill="#e98665"/>
        <path id="Trazado_876224" data-name="Trazado 876224" d="M599.372,527.688l.036-.051c.015.036.005.054-.036.051" transform="translate(-565.034 -497.408)" fill="#c5d5b0"/>
        <path id="Trazado_876225" data-name="Trazado 876225" d="M149.784,471.51c.134-.2.252-.4.4-.587a.558.558,0,0,1,.806-.144.579.579,0,0,1,.2.8,14.882,14.882,0,0,1-.927,1.4.6.6,0,0,1-1.018-.017c-.322-.446-.6-.923-.892-1.391a.854.854,0,0,1-.1-.267.54.54,0,0,1,.2-.584.5.5,0,0,1,.61-.012,1.608,1.608,0,0,1,.475.485c.076.1.117.239.241.317" transform="translate(-139.747 -443.649)" fill="#0d0f0d"/>
        <path id="Trazado_876226" data-name="Trazado 876226" d="M53.431,472.125a.682.682,0,0,1-.15.452c-.285.358-.523.748-.779,1.125a.617.617,0,0,1-1.141.006c-.249-.36-.494-.723-.73-1.091-.3-.462-.272-.814.054-1.034.3-.2.643-.076.967.336.1.13.148.367.306.368.09,0,.181-.24.275-.369a1.862,1.862,0,0,1,.18-.221.536.536,0,0,1,.643-.162.61.61,0,0,1,.374.589" transform="translate(-47.535 -444.474)" fill="#0d0f0d"/>
        <path id="Trazado_876227" data-name="Trazado 876227" d="M518.315,471.869c.182-.235.329-.446.5-.639a.521.521,0,0,1,.738-.11.536.536,0,0,1,.209.722,17.324,17.324,0,0,1-1.034,1.564.536.536,0,0,1-.851,0,14.469,14.469,0,0,1-.99-1.421.648.648,0,0,1,.155-.826.633.633,0,0,1,.808.111,2.772,2.772,0,0,1,.467.6" transform="translate(-487.191 -444.03)" fill="#0d0f0d"/>
        <path id="Trazado_876228" data-name="Trazado 876228" d="M266.464,472.255a3.443,3.443,0,0,1,.593-.736.5.5,0,0,1,.676-.043.568.568,0,0,1,.2.733,17.81,17.81,0,0,1-.991,1.5.576.576,0,0,1-.975-.031c-.314-.417-.594-.861-.875-1.3a.781.781,0,0,1-.069-.612.56.56,0,0,1,.948-.217,2.5,2.5,0,0,1,.491.708" transform="translate(-249.813 -444.358)" fill="#0d0f0d"/>
        <path id="Trazado_876229" data-name="Trazado 876229" d="M421.1,472.466a3.991,3.991,0,0,1,.466-.659c.29-.277.608-.329.842-.134a.668.668,0,0,1,.082.882c-.263.385-.506.782-.758,1.174a.665.665,0,0,1-1.2.012c-.241-.354-.477-.71-.735-1.052a.747.747,0,0,1-.173-.5.61.61,0,0,1,.354-.574.587.587,0,0,1,.629.149,2.144,2.144,0,0,1,.494.7" transform="translate(-395.58 -444.54)" fill="#0d0f0d"/>
        <path id="Trazado_876230" data-name="Trazado 876230" d="M275.671,188.305a1.847,1.847,0,0,1,.053-3.691,1.785,1.785,0,0,1,1.823,1.834,1.845,1.845,0,0,1-1.876,1.858m-.584-1.859a.64.64,0,0,0,.68.621.592.592,0,0,0,.584-.583.647.647,0,0,0-.651-.626.609.609,0,0,0-.613.588" transform="translate(-258.219 -174.037)" fill="#0c0c0b"/>
        <path id="Trazado_876231" data-name="Trazado 876231" d="M410.889,216.973a2.262,2.262,0,0,1-.687,1.939,2.065,2.065,0,0,1-1.947.084,1.806,1.806,0,0,1,.234-3.355,1.672,1.672,0,0,1,1.911.44c.106.109.192.237.287.356l.156.331.011.073a.124.124,0,0,0,.037.132m-1.821-.2a.566.566,0,0,0-.594.531.629.629,0,0,0,.623.675.605.605,0,1,0-.029-1.206" transform="translate(-383.89 -203.164)" fill="#0c0c0b"/>
        <path id="Trazado_876232" data-name="Trazado 876232" d="M184.5,187.686a1.832,1.832,0,1,1,3.661.047,1.78,1.78,0,0,1-1.905,1.774,1.83,1.83,0,0,1-1.756-1.821m1.847-.64a.635.635,0,0,0-.059,1.268.674.674,0,0,0,.66-.628.633.633,0,0,0-.6-.64" transform="translate(-173.926 -175.16)" fill="#0c0c0b"/>
        <path id="Trazado_876233" data-name="Trazado 876233" d="M491.471,184.722a1.887,1.887,0,0,1,1.343,2.742,1.824,1.824,0,0,1-3.067.213c-.04-.053-.085-.1-.128-.153-.046-.068-.022-.168-.1-.221a1.85,1.85,0,0,1,.974-2.418,2.558,2.558,0,0,1,.979-.164m-.87,1.843a.628.628,0,0,0,.614.652.706.706,0,0,0,.633-.655.594.594,0,0,0-.592-.6.621.621,0,0,0-.655.6" transform="translate(-461.363 -174.139)" fill="#0c0c0b"/>
        <path id="Trazado_876234" data-name="Trazado 876234" d="M433.951,120.09a5.078,5.078,0,0,1,.227-.644,1.686,1.686,0,0,1,1.8-.939,1.878,1.878,0,0,1,1.61,1.558c.006.047.012.094.019.142s0,.08,0,.12a1.808,1.808,0,0,1-1.077,1.624,1.759,1.759,0,0,1-2.555-1.548c-.009-.1-.013-.208-.019-.312m2.386.21a.561.561,0,0,0-.587-.566.629.629,0,0,0-.574.632.549.549,0,0,0,.577.544.6.6,0,0,0,.584-.61" transform="translate(-409.09 -111.694)" fill="#0c0c0b"/>
        <path id="Trazado_876235" data-name="Trazado 876235" d="M469.069,229.787c.079.053.055.153.1.22-.368,0-.736.008-1.1,0-.169,0-.219.069-.2.22l-.156-.331,1.171.005c.087,0,.177.01.189-.114" transform="translate(-440.914 -216.622)" fill="#c08f6d"/>
        <path id="Trazado_876236" data-name="Trazado 876236" d="M499.337,146.805c.145-.162.338-.1.517-.114a.821.821,0,0,1-.517.114" transform="translate(-470.73 -138.285)" fill="#c08f6d"/>
        <path id="Trazado_876237" data-name="Trazado 876237" d="M497.677,148.7v-.12l.06.012-.06.108" transform="translate(-469.165 -140.064)" fill="#c08f6d"/>
        <path id="Trazado_876238" data-name="Trazado 876238" d="M470.583,238.865a.124.124,0,0,1-.037-.132.122.122,0,0,1,.037.132" transform="translate(-443.584 -225.056)" fill="#c08f6d"/>
        <path id="Trazado_876239" data-name="Trazado 876239" d="M120.816,179.319a.592.592,0,0,1-.586.663.708.708,0,0,1-.694-.718.65.65,0,0,1,.6-.678.724.724,0,0,1,.685.733" transform="translate(-112.688 -168.354)" fill="#0d0f0d"/>
        <path id="Trazado_876240" data-name="Trazado 876240" d="M57.589,180.7a.668.668,0,0,1-.676-.694.64.64,0,0,1,.617-.651.68.68,0,0,1,.677.7.636.636,0,0,1-.618.648" transform="translate(-53.653 -169.083)" fill="#0d0f0d"/>
        <path id="Trazado_876241" data-name="Trazado 876241" d="M294.412,206.933a.609.609,0,0,1,.613-.588.647.647,0,0,1,.651.626.592.592,0,0,1-.584.583.64.64,0,0,1-.68-.621" transform="translate(-277.545 -194.523)" fill="#e28362"/>
        <path id="Trazado_876242" data-name="Trazado 876242" d="M429.68,237.463a.605.605,0,1,1,.029,1.206.629.629,0,0,1-.623-.675.565.565,0,0,1,.594-.531" transform="translate(-404.501 -223.858)" fill="#e58463"/>
        <path id="Trazado_876243" data-name="Trazado 876243" d="M206.249,207.456a.633.633,0,0,1,.6.64.674.674,0,0,1-.66.628.635.635,0,0,1,.059-1.268" transform="translate(-193.832 -195.571)" fill="#e28362"/>
        <path id="Trazado_876244" data-name="Trazado 876244" d="M510.348,206.923a.621.621,0,0,1,.655-.6.594.594,0,0,1,.592.6.706.706,0,0,1-.633.655.628.628,0,0,1-.614-.652" transform="translate(-481.109 -194.498)" fill="#e28362"/>
        <path id="Trazado_876245" data-name="Trazado 876245" d="M456.492,140.883a.6.6,0,0,1-.584.61.549.549,0,0,1-.577-.544.629.629,0,0,1,.574-.632.561.561,0,0,1,.587.566" transform="translate(-429.244 -132.277)" fill="#e28362"/>
      </g>
    </g>
  </g>
</svg>
