<svg xmlns="http://www.w3.org/2000/svg" xmlns:xlink="http://www.w3.org/1999/xlink" width="120" height="120" viewBox="0 0 120 120"><defs><filter id="a" x="0" y="0" width="120" height="120" filterUnits="userSpaceOnUse"><feOffset dy="3" input="SourceAlpha"/><feGaussianBlur stdDeviation="3" result="b"/><feFlood flood-opacity="0.161"/><feComposite operator="in" in2="b"/><feComposite in="SourceGraphic"/></filter><filter id="c" x="5.719" y="5.719" width="108.563" height="108.563" filterUnits="userSpaceOnUse"><feOffset dy="3" input="SourceAlpha"/><feGaussianBlur stdDeviation="3" result="d"/><feFlood flood-opacity="0.161"/><feComposite operator="in" in2="d"/><feComposite in="SourceGraphic"/></filter></defs><g transform="translate(-12033.281 8562.757)"><g transform="translate(11658.281 -9326.757)"><g transform="matrix(1, 0, 0, 1, 375, 764)" filter="url(#a)"><circle cx="51" cy="51" r="51" transform="translate(9 6)" fill="#e6f1e8"/></g><g transform="matrix(1, 0, 0, 1, 375, 764)" filter="url(#c)"><circle cx="45.281" cy="45.281" r="45.281" transform="translate(14.72 11.72)" fill="#f9f9f9"/></g></g><path d="M-1.5-9.406q0,4.719-1.953,7.219A6.817,6.817,0,0,1-9.172.313a6.865,6.865,0,0,1-5.687-2.453q-1.969-2.453-2.016-7.031v-4.187q0-4.766,1.977-7.234a6.868,6.868,0,0,1,5.7-2.469,6.875,6.875,0,0,1,5.688,2.445q1.969,2.445,2.016,7.023ZM-6.016-14a8.316,8.316,0,0,0-.773-4.117A2.614,2.614,0,0,0-9.2-19.406a2.568,2.568,0,0,0-2.352,1.227,7.782,7.782,0,0,0-.8,3.836v5.531A8.729,8.729,0,0,0-11.6-4.68a2.58,2.58,0,0,0,2.43,1.352,2.536,2.536,0,0,0,2.391-1.3,8.52,8.52,0,0,0,.766-3.969Zm22.391-2.7a5.292,5.292,0,0,1-.828,2.938,5.96,5.96,0,0,1-2.281,2.047,6.6,6.6,0,0,1,2.625,2.2,5.631,5.631,0,0,1,.969,3.289A5.963,5.963,0,0,1,14.8-1.445,8.366,8.366,0,0,1,9.188.313,8.4,8.4,0,0,1,3.563-1.453,5.948,5.948,0,0,1,1.484-6.234a5.667,5.667,0,0,1,.969-3.3,6.478,6.478,0,0,1,2.609-2.187,5.9,5.9,0,0,1-2.273-2.047,5.329,5.329,0,0,1-.82-2.937,5.9,5.9,0,0,1,1.938-4.633,7.628,7.628,0,0,1,5.266-1.727,7.679,7.679,0,0,1,5.258,1.711A5.874,5.874,0,0,1,16.375-16.7ZM12.328-6.562a3.276,3.276,0,0,0-.859-2.375,3.064,3.064,0,0,0-2.312-.891,3.059,3.059,0,0,0-2.3.883A3.27,3.27,0,0,0,6-6.562a3.268,3.268,0,0,0,.844,2.344,3.073,3.073,0,0,0,2.344.891,3.066,3.066,0,0,0,2.3-.859A3.262,3.262,0,0,0,12.328-6.562Zm-.469-9.922a3.125,3.125,0,0,0-.7-2.133,2.5,2.5,0,0,0-1.984-.8,2.513,2.513,0,0,0-1.969.781,3.107,3.107,0,0,0-.7,2.156A3.265,3.265,0,0,0,7.2-14.3a2.461,2.461,0,0,0,1.984.828,2.437,2.437,0,0,0,1.977-.828A3.289,3.289,0,0,0,11.859-16.484Z" transform="translate(12093 -8493)" fill="#12263f"/></g></svg>