<svg xmlns="http://www.w3.org/2000/svg" xmlns:xlink="http://www.w3.org/1999/xlink" width="80" height="80" viewBox="0 0 80 80">
  <defs>
    <radialGradient id="radial-gradient" cx="0.5" cy="0.5" r="0.5" gradientUnits="objectBoundingBox">
      <stop offset="0" stop-color="#ffd4a3"/>
      <stop offset="1" stop-color="#f9a545"/>
    </radialGradient>
    <filter id="Elipse_11492" x="0" y="0" width="80" height="80" filterUnits="userSpaceOnUse">
      <feOffset dy="3" input="SourceAlpha"/>
      <feGaussianBlur stdDeviation="3" result="blur"/>
      <feFlood flood-opacity="0.161"/>
      <feComposite operator="in" in2="blur"/>
      <feComposite in="SourceGraphic"/>
    </filter>
  </defs>
  <g id="img12" transform="translate(-1273.262 -252.929)">
    <g transform="matrix(1, 0, 0, 1, 1273.26, 252.93)" filter="url(#Elipse_11492)">
      <g id="Elipse_11492-2" data-name="Elipse 11492" transform="translate(9 6)" stroke="#fff" stroke-width="4" fill="url(#radial-gradient)">
        <circle cx="31" cy="31" r="31" stroke="none"/>
        <circle cx="31" cy="31" r="29" fill="none"/>
      </g>
    </g>
    <g id="cow_4778614" transform="translate(1294.583 268.934)">
      <g id="Grupo_1099136" data-name="Grupo 1099136" transform="translate(0.492 4.371)">
        <path id="Trazado_873112" data-name="Trazado 873112" d="M40.135,87.98h8.6a3.385,3.385,0,0,1,3.385,3.385v1.326a1.693,1.693,0,0,1-1.693,1.693H38.443a1.693,1.693,0,0,1-1.693-1.693V91.365a3.385,3.385,0,0,1,3.385-3.385Z" transform="translate(-26.876 -64.748)" fill="#feedda"/>
        <path id="Trazado_873113" data-name="Trazado 873113" d="M44.562,110.676H55.529V112a1.975,1.975,0,0,1-1.975,1.975H46.537A1.975,1.975,0,0,1,44.562,112Z" transform="translate(-32.485 -81.042)" fill="#fcdbb4"/>
        <rect id="Rect치ngulo_401217" data-name="Rect치ngulo 401217" width="2.662" height="1.834" rx="0.917" transform="translate(12.395 25.741)" fill="#515165"/>
        <rect id="Rect치ngulo_401218" data-name="Rect치ngulo 401218" width="2.662" height="1.834" rx="0.917" transform="translate(22.727 27.575) rotate(180)" fill="#515165"/>
        <path id="Trazado_873114" data-name="Trazado 873114" d="M90.909,6.713a6.818,6.818,0,0,1-5.044,2.231H83.749a5.353,5.353,0,0,1,4.49,2.438,3.949,3.949,0,0,0,3.5-3.64l.151-2.113Z" transform="translate(-60.617 -5.629)" fill="#e0e0e0"/>
        <path id="Trazado_873115" data-name="Trazado 873115" d="M16.361,6.714A6.818,6.818,0,0,0,21.4,8.944h2.116a5.353,5.353,0,0,0-4.49,2.438,3.949,3.949,0,0,1-3.5-3.64L15.375,5.63Z" transform="translate(-11.531 -5.63)" fill="#e0e0e0"/>
        <path id="Trazado_873116" data-name="Trazado 873116" d="M49.5,26.489a7.855,7.855,0,0,0-.3-8.509l-.418-.6H45.607l-.418.6a7.855,7.855,0,0,0-.3,8.509,5.309,5.309,0,0,1-1.5,7.057l-2.8,1.978a9.43,9.43,0,0,1,.115,1.455V38.1a3.369,3.369,0,0,1,2.186-.8h8.6a3.369,3.369,0,0,1,2.186.8v-1.12a9.464,9.464,0,0,1,.115-1.455L51,33.546a5.309,5.309,0,0,1-1.5-7.057Z" transform="translate(-29.635 -14.064)" fill="#f4f4f7"/>
        <path id="Trazado_873117" data-name="Trazado 873117" d="M33.876,26.489a7.855,7.855,0,0,1,.3-8.509l.418-.6H30.61a5.36,5.36,0,0,0-5.36,5.36v2.071a9.443,9.443,0,0,0,2.222,6.085,9.441,9.441,0,0,1,2.106,4.63l2.8-1.978a5.309,5.309,0,0,0,1.5-7.057Z" transform="translate(-18.621 -14.064)" fill="#515165"/>
        <path id="Trazado_873118" data-name="Trazado 873118" d="M78.889,24.809V22.738a5.36,5.36,0,0,0-5.36-5.36H69.546l.418.6a7.855,7.855,0,0,1,.3,8.509,5.309,5.309,0,0,0,1.5,7.057l2.8,1.978a9.444,9.444,0,0,1,2.107-4.63,9.443,9.443,0,0,0,2.222-6.085Z" transform="translate(-50.397 -14.064)" fill="#515165"/>
        <path id="Trazado_873119" data-name="Trazado 873119" d="M104.15,29.214a5.92,5.92,0,0,0-2.821-.235,5.339,5.339,0,0,1,.4,2.034v2.071a9.429,9.429,0,0,1-.127,1.532,4.935,4.935,0,0,0,.514.221c2.886,1.044,6.242-.922,6.242-.922S107.036,30.257,104.15,29.214Z" transform="translate(-73.237 -22.338)" fill="#363644"/>
        <path id="Trazado_873120" data-name="Trazado 873120" d="M104.4,37.087a3.173,3.173,0,0,0-1.076-.171,4.966,4.966,0,0,0-.577.036v.765a3.4,3.4,0,0,0,1.155.748,3.164,3.164,0,0,0,1.076.171,5.483,5.483,0,0,0,1.174-.137A4.14,4.14,0,0,0,104.4,37.087Z" transform="translate(-74.258 -28.09)" fill="#f4f4f7"/>
        <path id="Trazado_873121" data-name="Trazado 873121" d="M5.959,29.214a5.92,5.92,0,0,1,2.821-.235,5.345,5.345,0,0,0-.4,2.034v2.071A9.43,9.43,0,0,0,8.5,34.616a4.933,4.933,0,0,1-.514.221c-2.885,1.044-6.241-.922-6.241-.922s1.323-3.657,4.209-4.7Z" transform="translate(-1.75 -22.338)" fill="#363644"/>
        <path id="Trazado_873122" data-name="Trazado 873122" d="M14.935,37.087a3.173,3.173,0,0,1,1.076-.171,4.966,4.966,0,0,1,.577.036v.765a3.4,3.4,0,0,1-1.155.748,3.164,3.164,0,0,1-1.076.171,5.482,5.482,0,0,1-1.174-.137A4.14,4.14,0,0,1,14.935,37.087Z" transform="translate(-9.958 -28.09)" fill="#f4f4f7"/>
      </g>
      <g id="Grupo_1099137" data-name="Grupo 1099137" transform="translate(-0.003 3.877)">
        <path id="Trazado_873123" data-name="Trazado 873123" d="M46.176,95.127h-.829a1.411,1.411,0,0,0,0,2.821h.829a1.411,1.411,0,1,0,0-2.821Zm0,1.834h-.829a.423.423,0,0,1,0-.846h.829a.423.423,0,0,1,0,.846Z" transform="translate(-31.541 -69.385)"/>
        <path id="Trazado_873124" data-name="Trazado 873124" d="M73.364,95.127h-.829a1.411,1.411,0,1,0,0,2.821h.829a1.411,1.411,0,1,0,0-2.821Zm0,1.834h-.829a.423.423,0,0,1,0-.846h.829a.423.423,0,0,1,0,.846Z" transform="translate(-51.06 -69.385)"/>
        <path id="Trazado_873125" data-name="Trazado 873125" d="M50.659,32.875a.489.489,0,0,0-.508.48,8.358,8.358,0,0,0,.033,1.016.494.494,0,0,0,.491.448.325.325,0,0,0,.047,0,.494.494,0,0,0,.445-.537,7.415,7.415,0,0,1-.028-.895.494.494,0,0,0-.48-.508Z" transform="translate(-36 -24.694)"/>
        <path id="Trazado_873126" data-name="Trazado 873126" d="M37.289,49.86a.865.865,0,0,0-1.149.837,1.2,1.2,0,0,0,.236.715,1.128,1.128,0,0,0,.893.49.856.856,0,0,0,.508-.163.891.891,0,0,0,.356-.719A1.235,1.235,0,0,0,37.289,49.86Z" transform="translate(-25.944 -36.854)"/>
        <path id="Trazado_873127" data-name="Trazado 873127" d="M86.433,49.985a.892.892,0,0,0-.794-.118,1.234,1.234,0,0,0-.844,1.159.891.891,0,0,0,.356.719.855.855,0,0,0,.508.163,1.128,1.128,0,0,0,.893-.49,1.2,1.2,0,0,0,.236-.715A.889.889,0,0,0,86.433,49.985Z" transform="translate(-60.873 -36.861)"/>
        <path id="Trazado_873128" data-name="Trazado 873128" d="M36.079,15.779c-.056-.158-1.437-3.888-4.505-5a6.2,6.2,0,0,0-2.694-.3l0-.006a4.437,4.437,0,0,0,3.235-3.957l.151-2.113a.494.494,0,0,0-.858-.367l-.987,1.084A6.336,6.336,0,0,1,25.74,7.193H10.365a6.336,6.336,0,0,1-4.678-2.07L4.7,4.038a.494.494,0,0,0-.858.367l.151,2.113A4.437,4.437,0,0,0,7.23,10.475l0,.006a6.2,6.2,0,0,0-2.694.3c-3.068,1.11-4.448,4.839-4.507,5a.494.494,0,0,0,.215.592,10.273,10.273,0,0,0,4.642,1.3,5.922,5.922,0,0,0,2-.328,9.948,9.948,0,0,0,2.084,4.18,9,9,0,0,1,2.105,5.766v.9a3.865,3.865,0,0,0-1.2,2.8v1.326A2.189,2.189,0,0,0,12.058,34.5h.017v.831A2.471,2.471,0,0,0,14.544,37.8h5.748a.494.494,0,1,0,0-.987H14.544a1.483,1.483,0,0,1-1.481-1.481V34.5h9.979v.831a1.467,1.467,0,0,1-.315.913.494.494,0,1,0,.777.609,2.443,2.443,0,0,0,.525-1.523V34.5h.018a2.189,2.189,0,0,0,2.186-2.186V30.987a3.864,3.864,0,0,0-1.2-2.8v-.9a9,9,0,0,1,2.105-5.766,9.948,9.948,0,0,0,2.084-4.179,5.923,5.923,0,0,0,2,.33,10.279,10.279,0,0,0,4.642-1.3.493.493,0,0,0,.216-.594Zm-5.609-1.947a2.853,2.853,0,0,1,.922.587,2.857,2.857,0,0,1-1.085-.138,2.725,2.725,0,0,1-.829-.5v-.085a2.7,2.7,0,0,1,.99.139Zm-3.7-5.726a7.33,7.33,0,0,0,4.383-2.319l.027-.028-.049.69a3.453,3.453,0,0,1-2.781,3.142,6.286,6.286,0,0,0-1.579-1.484ZM7.76,9.589A3.453,3.453,0,0,1,4.979,6.448l-.049-.69.027.028A7.33,7.33,0,0,0,9.339,8.106,6.282,6.282,0,0,0,7.76,9.589ZM6.627,13.778a2.727,2.727,0,0,1-.829.5,2.849,2.849,0,0,1-1.085.138,2.853,2.853,0,0,1,.922-.587,2.7,2.7,0,0,1,.991-.141ZM6.566,16.4c-2.093.756-4.522-.238-5.445-.686.421-.934,1.649-3.25,3.747-4.008a5.078,5.078,0,0,1,1.983-.267,6.025,6.025,0,0,0-.212,1.263,3.732,3.732,0,0,0-1.339.2,4.544,4.544,0,0,0-1.975,1.573.493.493,0,0,0,.282.784,5.953,5.953,0,0,0,1.28.149,3.658,3.658,0,0,0,1.244-.2,3.262,3.262,0,0,0,.493-.234A10.649,10.649,0,0,0,6.7,16.35c-.044.02-.091.038-.137.054Zm18.68,14.583v1.326a1.2,1.2,0,0,1-1.2,1.2H12.058a1.2,1.2,0,0,1-1.2-1.2V30.988A2.885,2.885,0,0,1,11.9,28.773a2.927,2.927,0,0,1,1.855-.677h8.6a2.927,2.927,0,0,1,1.855.677A2.885,2.885,0,0,1,25.246,30.988Zm-1.535-3.629a3.907,3.907,0,0,0-1.356-.25h-8.6a4.006,4.006,0,0,0-1.693.39v-.214a9.93,9.93,0,0,0-.078-1.225l2.555-1.805a5.83,5.83,0,0,0,1.636-7.713.494.494,0,1,0-.848.506,4.839,4.839,0,0,1-1.358,6.4l-2.181,1.54A9.927,9.927,0,0,0,9.72,20.883a8.964,8.964,0,0,1-1.986-4.325,22.152,22.152,0,0,1-.119-3.325,4.953,4.953,0,0,1,.805-2.862A4.885,4.885,0,0,1,12.482,8.18H15.53a8.437,8.437,0,0,0-.6,1.06.494.494,0,1,0,.894.418,7.429,7.429,0,0,1,.627-1.089l.271-.39h2.662l.271.39a7.376,7.376,0,0,1,.279,7.974,5.83,5.83,0,0,0,1.636,7.713l2.555,1.805a9.93,9.93,0,0,0-.078,1.225V27.5c-.112-.049-.221-.1-.336-.142Zm2.674-6.476a9.922,9.922,0,0,0-2.066,4.105L22.14,23.45a4.839,4.839,0,0,1-1.358-6.4,8.418,8.418,0,0,0-.2-8.87h3.04a4.885,4.885,0,0,1,4.062,2.192,4.953,4.953,0,0,1,.8,2.862,22.187,22.187,0,0,1-.119,3.325,8.964,8.964,0,0,1-1.986,4.325ZM29.539,16.4l-.141-.054a10.652,10.652,0,0,0,.079-1.374,3.27,3.27,0,0,0,.493.234,3.654,3.654,0,0,0,1.244.2,5.953,5.953,0,0,0,1.28-.149.493.493,0,0,0,.282-.784A4.545,4.545,0,0,0,30.8,12.9a3.72,3.72,0,0,0-1.339-.2,6.044,6.044,0,0,0-.212-1.263,5.078,5.078,0,0,1,1.983.267c2.091.756,3.323,3.075,3.746,4.008-.92.447-3.349,1.441-5.44.685Z" transform="translate(0.003 -3.877)"/>
      </g>
    </g>
  </g>
</svg>
