<svg xmlns="http://www.w3.org/2000/svg" xmlns:xlink="http://www.w3.org/1999/xlink" width="120" height="120" viewBox="0 0 120 120"><defs><filter id="a" x="0" y="0" width="120" height="120" filterUnits="userSpaceOnUse"><feOffset dy="3" input="SourceAlpha"/><feGaussianBlur stdDeviation="3" result="b"/><feFlood flood-opacity="0.161"/><feComposite operator="in" in2="b"/><feComposite in="SourceGraphic"/></filter><filter id="c" x="5.719" y="5.719" width="108.563" height="108.563" filterUnits="userSpaceOnUse"><feOffset dy="3" input="SourceAlpha"/><feGaussianBlur stdDeviation="3" result="d"/><feFlood flood-opacity="0.161"/><feComposite operator="in" in2="d"/><feComposite in="SourceGraphic"/></filter></defs><g transform="translate(-11720.281 8250.757)"><g transform="translate(11345.281 -9014.757)"><g transform="matrix(1, 0, 0, 1, 375, 764)" filter="url(#a)"><circle cx="51" cy="51" r="51" transform="translate(9 6)" fill="#e6f1e8"/></g><g transform="matrix(1, 0, 0, 1, 375, 764)" filter="url(#c)"><circle cx="45.281" cy="45.281" r="45.281" transform="translate(14.72 11.72)" fill="#f9f9f9"/></g></g><path d="M-1.5-9.406q0,4.719-1.953,7.219A6.817,6.817,0,0,1-9.172.313a6.865,6.865,0,0,1-5.687-2.453q-1.969-2.453-2.016-7.031v-4.187q0-4.766,1.977-7.234a6.868,6.868,0,0,1,5.7-2.469,6.875,6.875,0,0,1,5.688,2.445q1.969,2.445,2.016,7.023ZM-6.016-14a8.316,8.316,0,0,0-.773-4.117A2.614,2.614,0,0,0-9.2-19.406a2.568,2.568,0,0,0-2.352,1.227,7.782,7.782,0,0,0-.8,3.836v5.531A8.729,8.729,0,0,0-11.6-4.68a2.58,2.58,0,0,0,2.43,1.352,2.536,2.536,0,0,0,2.391-1.3,8.52,8.52,0,0,0,.766-3.969ZM12.109-9.094A5.7,5.7,0,0,1,7.984-7.359,6.1,6.1,0,0,1,3.156-9.43a8.182,8.182,0,0,1-1.812-5.586,8.715,8.715,0,0,1,.977-4.1,7.163,7.163,0,0,1,2.727-2.906,7.565,7.565,0,0,1,3.938-1.039,7.235,7.235,0,0,1,4,1.125A7.4,7.4,0,0,1,15.7-18.7a11.613,11.613,0,0,1,.984,4.828V-12.2q0,5.688-2.828,8.938A10.692,10.692,0,0,1,5.844.2L4.734.219V-3.547l1-.016Q11.625-3.828,12.109-9.094ZM9.094-10.812a3.158,3.158,0,0,0,1.883-.562,3.758,3.758,0,0,0,1.2-1.359v-1.859a6.209,6.209,0,0,0-.875-3.562,2.716,2.716,0,0,0-2.344-1.266A2.636,2.636,0,0,0,6.719-18.18a5.282,5.282,0,0,0-.875,3.117A5.14,5.14,0,0,0,6.7-12.008,2.774,2.774,0,0,0,9.094-10.812Z" transform="translate(11780 -8181)" fill="#12263f"/></g></svg>